<svg id="Calque_1" data-name="Calque 1" xmlns="http://www.w3.org/2000/svg" viewBox="0 0 64 64"><title>bold</title><path d="M44,17.84a9.15,9.15,0,0,1,1.65,5.49,8,8,0,0,1-1.67,5.3,8.6,8.6,0,0,1-2.74,2.05,8,8,0,0,1,4.16,3.17,9.53,9.53,0,0,1,1.4,5.27,10.52,10.52,0,0,1-1.6,5.74,9.91,9.91,0,0,1-6.61,4.64,24.88,24.88,0,0,1-5.08.49H17.24V14H34.63Q41.21,14.1,44,17.84ZM24.42,20.26v7.93h8.75A7.23,7.23,0,0,0,37,27.3a3.4,3.4,0,0,0,1.46-3.16,3.22,3.22,0,0,0-1.93-3.32,13.56,13.56,0,0,0-4.25-.56Zm0,13.89v9.59h8.74a8.48,8.48,0,0,0,3.64-.63q2.36-1.17,2.37-4.49a3.87,3.87,0,0,0-2.29-3.86,9.1,9.1,0,0,0-3.6-.61Z"/></svg>