<svg id="Calque_1" data-name="Calque 1" xmlns="http://www.w3.org/2000/svg" viewBox="0 0 64 64"><title>embed</title><path d="M17.11,37.79a4.44,4.44,0,0,0-1.39-3.52,6,6,0,0,0-2.41-1.18V30.88a6.59,6.59,0,0,0,2.5-1.33,5.14,5.14,0,0,0,1.29-3.85V20.82a6.72,6.72,0,0,1,.31-2,5.58,5.58,0,0,1,1.86-2.81A6.42,6.42,0,0,1,22.1,14.8a15.85,15.85,0,0,1,2.82-.22V17.5a4.22,4.22,0,0,0-2,.87A4.1,4.1,0,0,0,22,21.3v4.22a7.94,7.94,0,0,1-.55,3.24A7,7,0,0,1,17.84,32a6.87,6.87,0,0,1,3.31,2.33A7,7,0,0,1,22,38.05v4.61a3.78,3.78,0,0,0,1,2.91,4.69,4.69,0,0,0,1.9.93v2.92l-1.29,0a7.7,7.7,0,0,1-4.56-1.56,5.11,5.11,0,0,1-2-4.33Z"/><path d="M39,49.42V46.5A4.57,4.57,0,0,0,41,45.56a4,4,0,0,0,1-2.9V38.05a6,6,0,0,1,1-3.83A8.08,8.08,0,0,1,46.13,32a7.64,7.64,0,0,1-3.3-2.65,7.35,7.35,0,0,1-.91-3.87V21.3a4.27,4.27,0,0,0-.65-2.75A4,4,0,0,0,39,17.5V14.58a15.87,15.87,0,0,1,2.81.22,6.6,6.6,0,0,1,2.85,1.26,4.93,4.93,0,0,1,1.7,2.33,7.62,7.62,0,0,1,.48,2.42V25.7a5.33,5.33,0,0,0,1.18,3.83,6.78,6.78,0,0,0,2.61,1.35v2.21a6.15,6.15,0,0,0-2.35,1.13,4.46,4.46,0,0,0-1.44,3.57v5.71A5.17,5.17,0,0,1,45,47.79a7.55,7.55,0,0,1-4.62,1.6Z"/></svg>