<svg id="Calque_1" data-name="Calque 1" xmlns="http://www.w3.org/2000/svg" viewBox="0 0 64 64"><defs><style>.cls-1{fill:none;stroke:#000;stroke-miterlimit:10;stroke-width:3px;}</style></defs><title>horizontal_move</title><path d="M33.34,54.64l5.45-12.1h0l3.74-8.31a2.25,2.25,0,0,0-.67-2.75,2.19,2.19,0,0,0-3.27.87h0l.56-1.24a2.25,2.25,0,0,0-.67-2.75,2.19,2.19,0,0,0-3.27.87l.26-.58a2.25,2.25,0,0,0-.67-2.75,2.19,2.19,0,0,0-3.27.87L36,16.92a2.25,2.25,0,0,0-.67-2.75A2.19,2.19,0,0,0,32,15l-6.89,15.3-.85-1.64a2.19,2.19,0,0,0-2.18-2.19h-.47a2.19,2.19,0,0,0-2.19,2.18l.83,7.11h0a26.57,26.57,0,0,1-1.89,9.52l-1,2.15a3.46,3.46,0,0,0,1.73,4.58l9.6,4.33A3.46,3.46,0,0,0,33.34,54.64Z"/><line class="cls-1" x1="50.01" y1="19.56" x2="13.99" y2="19.56"/><polyline class="cls-1" points="47.62 14.82 52.36 19.56 47.62 24.29"/><polyline class="cls-1" points="16.38 24.29 11.64 19.56 16.38 14.82"/></svg>