<svg id="Calque_1" data-name="Calque 1" xmlns="http://www.w3.org/2000/svg" viewBox="0 0 64 64"><title>italic</title><path d="M43.81,14.68l-.37,1.61a16.58,16.58,0,0,0-2,.22,16.44,16.44,0,0,0-1.81.37,2.6,2.6,0,0,0-1.46,1,4.56,4.56,0,0,0-.63,1.45L31.69,44.62a2.21,2.21,0,0,0-.07.38,3.63,3.63,0,0,0,0,.39,1.76,1.76,0,0,0,.24,1,2,2,0,0,0,.88.68,8.33,8.33,0,0,0,1.61.4q1.25.23,1.86.28l-.37,1.61H20.19l.37-1.61,2-.15a7.51,7.51,0,0,0,1.81-.29,3.2,3.2,0,0,0,1.44-.94,3.28,3.28,0,0,0,.66-1.45l5.86-25.34a4.3,4.3,0,0,0,.07-.44,4.14,4.14,0,0,0,0-.44,1.7,1.7,0,0,0-.21-.85,1.79,1.79,0,0,0-.87-.66,9.9,9.9,0,0,0-1.79-.55,14.42,14.42,0,0,0-1.67-.31l.37-1.61Z"/></svg>